{"title":"Kites (2010) 1CD Cam Rip Xvid MP3 [Dare DEvils]","uid":5578416,"size":731040306,"categoryP":"video","categoryS":"movies","magnet":"?xt=urn:btih:e64fcf152fd8347defb7ab7e1b762dac2bd932ea&amp;dn=Kites+%282010%29+1CD+Cam+Rip+Xvid+MP3+%5BDare+DEvils%5D&amp;tr=udp%3A%2F%2Ftracker.openbittorrent.com%3A80&amp;tr=udp%3A%2F%2Fopen.demonii.com%3A1337&amp;tr=udp%3A%2F%2Ftracker.coppersurfer.tk%3A6969&amp;tr=udp%3A%2F%2Fexodus.desync.com%3A6969","seeders":0,"leechers":0,"uploader":"luvwithromio","files":-1,"time":1274453490,"description":"Format                           : AVI\nFormat/Info                      : Audio Video Interleave\nFile size                        : 697 MiB\nDuration                         : 1h 39mn\nOverall bit rate                 : 976 Kbps\n\nVideo\nID                               : 0\nFormat                           : MPEG-4 Visual\nFormat profile                   : Advanced Simple@L5\nFormat settings, BVOP            : Yes\nFormat settings, QPel            : No\nFormat settings, GMC             : No warppoints\nFormat settings, Matrix          : Default (H.263)\nCodec ID                         : XVID\nCodec ID/Hint                    : XviD\nDuration                         : 1h 39mn\nBit rate                         : 868 Kbps\nWidth                            : 640 pixels\nHeight                           : 272 pixels\nDisplay aspect ratio             : 2.35:1\nFrame rate                       : 23.976 fps\nResolution                       : 8 bits\nColorimetry                      : 4:2:0\nScan type                        : Progressive\nBits/(Pixel*Frame)               : 0.208\nStream size                      : 620 MiB (89%)\nWriting library                  : XviD 1.1.2 (UTC 2006-11-01)\n\nAudio\nID                               : 1\nFormat                           : MPEG Audio\nFormat version                   : Version 1\nFormat profile                   : Layer 3\nCodec ID                         : 55\nCodec ID/Hint                    : MP3\nDuration                         : 1h 39mn\nBit rate mode                    : Constant\nBit rate                         : 96.0 Kbps\nChannel(s)                       : 2 channels\nSampling rate                    : 44.1 KHz\nStream size                      : 68.6 MiB (10%)\nAlignment                        : Split accross interleaves\nInterleave, duration             : 26 ms (0.63 video frame)","torrent":{"xt":"urn:btih:e64fcf152fd8347defb7ab7e1b762dac2bd932ea","amp;dn":"Kites+%282010%29+1CD+Cam+Rip+Xvid+MP3+%5BDare+DEvils%5D","amp;tr":["udp%3A%2F%2Ftracker.openbittorrent.com%3A80","udp%3A%2F%2Fopen.demonii.com%3A1337","udp%3A%2F%2Ftracker.coppersurfer.tk%3A6969","udp%3A%2F%2Fexodus.desync.com%3A6969"],"infoHash":"e64fcf152fd8347defb7ab7e1b762dac2bd932ea","infoHashBuffer":{"type":"Buffer","data":[230,79,207,21,47,216,52,125,239,183,171,126,27,118,45,172,43,217,50,234]},"announce":[],"urlList":[]}}